# xmcd CD database file
#
# Track frame offsets:
#	150
#	14952
#	36198
#	47243
#	62872
#
# Disc length: 1041 seconds
#
# Revision: 0
# Processed by: cddbd v1.5.2PL0 Copyright (c) Steve Scherf et al.
# Submitted via: CDex 1.94
#
DISCID=47040f05
DTITLE=Ukulele Death Squad - Not Afraid
DYEAR=2018
DGENRE=Ukulele
TTITLE0=Not Afraid
TTITLE1=Home (Bonus Live Track)
TTITLE2=Misirlou (Bonus Live Track)
TTITLE3=Minnie The Moocher (Bonus Live Track)
TTITLE4=Rue Royale (Bonus Live Track)
EXTD=YEAR: 2018
EXTT0=
EXTT1=
EXTT2=
EXTT3=
EXTT4=
PLAYORDER=
